<?xml version="1.0" encoding="UTF-8"?>
<svg version="1.1" xmlns="http://www.w3.org/2000/svg" width="512" height="512">
<path d="M0 0 C1.19641113 0.26538574 1.19641113 0.26538574 2.41699219 0.53613281 C43.69729392 9.94238811 79.13506719 32.58109271 102.21875 68.3984375 C117.53850074 93.67602623 123.32692444 124.66470181 116.90625 153.6171875 C113.53570767 166.19860845 107.32956693 176.08734823 96 183 C83.30715136 188.80799333 71.2078356 189.57526331 58 185 C43.41455576 178.24397171 37.10610034 166.83658795 30.5625 152.94921875 C27.78999569 147.10096746 25.42325959 143.99690143 19.75 140.6875 C14.36910488 139.34227622 9.65561607 140.21904902 4.6875 142.5625 C-2.702901 149.26542183 -4.01550232 160.07886957 -6.26757812 169.35742188 C-8.40536683 177.76670971 -11.04369457 185.75369155 -17.5 191.875 C-18.0465625 192.40867188 -18.593125 192.94234375 -19.15625 193.4921875 C-21 195 -21 195 -23.58032227 195.87011719 C-26.18151853 197.72639117 -26.18151853 197.72639117 -26.45346069 200.25308228 C-26.61594663 203.37470871 -26.6130189 206.46042676 -26.55859375 209.5859375 C-26.55509666 211.33603622 -26.55509666 211.33603622 -26.55152893 213.12149048 C-26.54176534 215.60483046 -26.51991906 218.08814728 -26.48706055 220.57128906 C-26.43850487 224.29787748 -26.42562729 228.02312682 -26.41992188 231.75 C-26.36809964 242.7772088 -26.12648665 253.75395182 -25.10546875 264.73828125 C-25.02977158 265.5557785 -24.9540744 266.37327576 -24.87608337 267.21554565 C-22.22050482 292.39216007 -8.08853167 317.81104944 11.44897461 333.79516602 C26.59680595 345.69294064 44.70876458 354.62984821 64 357 C65.06605469 357.13277344 66.13210938 357.26554687 67.23046875 357.40234375 C93.37249407 359.89606321 120.56376235 353.29644837 141.4375 337 C142.97001906 335.68011472 144.49107119 334.34679088 146 333 C147.22396484 331.98873047 147.22396484 331.98873047 148.47265625 330.95703125 C169.14412655 313.41663373 180.28372441 287.86025207 182.52954102 261.1706543 C182.87305333 256.29947775 183.05858059 251.43194269 183.19140625 246.55078125 C183.22387451 245.47022461 183.25634277 244.38966797 183.28979492 243.27636719 C183.34530944 241.18240413 183.3815899 239.08781501 183.39575195 236.99316406 C183.52615351 231.20079536 183.92839312 227.4703725 188 223 C193.22259857 218.94369602 198.65340142 219.22602456 205 220 C209.59082729 222.1746024 211.84451715 224.44902582 214 229 C214.44149549 231.91980395 214.44430452 234.80488166 214.43359375 237.75390625 C214.4388356 238.60943588 214.44407745 239.46496552 214.44947815 240.34642029 C214.45589551 242.16282065 214.45456504 243.97926258 214.44604492 245.7956543 C214.43768699 248.50195352 214.46604718 251.20602704 214.49804688 253.91210938 C214.64163457 289.70389924 200.78053703 321.66012266 177 348 C176.00033203 349.10794922 176.00033203 349.10794922 174.98046875 350.23828125 C152.80328296 373.53599854 119.37539931 388.40488783 87.3125 389.3359375 C84.5413643 389.37641518 81.7713903 389.38249324 79 389.375 C78.27588928 389.37478851 77.55177856 389.37457703 76.8057251 389.37435913 C64.82829439 389.33954581 53.54663341 388.31264801 42 385 C41.33452148 384.81808105 40.66904297 384.63616211 39.98339844 384.44873047 C18.79308298 378.54141532 0.19119323 366.61795988 -16 352 C-17.10794922 351.00033203 -17.10794922 351.00033203 -18.23828125 349.98046875 C-27.1410537 341.50588576 -35.08177971 330.75861901 -41 320 C-41 319.34 -41 318.68 -41 318 C-41.66 318 -42.32 318 -43 318 C-43.38865234 319.06734375 -43.38865234 319.06734375 -43.78515625 320.15625 C-55.69475887 348.03467671 -84.78324697 369.09786031 -111.9362793 380.31933594 C-128.18691694 386.77549693 -144.56824241 389.42213173 -162 389.375 C-162.72411072 389.37478851 -163.44822144 389.37457703 -164.1942749 389.37435913 C-176.17170561 389.33954581 -187.45336659 388.31264801 -199 385 C-199.66547852 384.81808105 -200.33095703 384.63616211 -201.01660156 384.44873047 C-235.31436018 374.88739716 -264.30086563 350.64256633 -281.8125 320 C-288.42876993 308.03129089 -293.14611738 295.38959737 -296 282 C-296.17805176 281.21012695 -296.35610352 280.42025391 -296.53955078 279.60644531 C-298.35946246 270.41743639 -298.37225815 261.23827106 -298.37060547 251.90722656 C-298.3750246 249.10942695 -298.41158605 246.31315167 -298.44921875 243.515625 C-298.45508034 241.72135949 -298.45905413 239.9270866 -298.4609375 238.1328125 C-298.47530853 237.30459991 -298.48967957 236.47638733 -298.50448608 235.62307739 C-298.46237875 230.27406748 -297.54013823 227.24955208 -294 223 C-288.77740143 218.94369602 -283.34659858 219.22602456 -277 220 C-272.40160037 222.1781893 -270.18212615 224.45797618 -268 229 C-267.65922539 231.86850236 -267.46848729 234.5492444 -267.41015625 237.421875 C-267.34707061 239.1054712 -267.28391723 240.78906487 -267.22070312 242.47265625 C-267.13936441 245.09152007 -267.06358906 247.71045692 -266.99145508 250.32958984 C-266.21844533 276.53186852 -259.29306077 300.74453053 -242 321 C-241.34644531 321.79792969 -240.69289062 322.59585937 -240.01953125 323.41796875 C-222.42479447 344.08938082 -196.64686792 355.47731944 -169.86523438 357.72070312 C-140.05260368 359.51344484 -113.34968 348.92237552 -90.8125 329.75 C-68.29086975 308.64963768 -59.00082217 280.2108896 -57.89138794 250.04699707 C-57.6723643 242.95679917 -57.55415738 235.86804737 -57.48510742 228.77490234 C-57.45318534 226.24372683 -57.40514892 223.71270671 -57.34155273 221.18212891 C-57.25054841 217.49585991 -57.21157543 213.81222014 -57.18359375 210.125 C-57.12636391 208.43274292 -57.12636391 208.43274292 -57.06797791 206.70629883 C-56.97814615 200.86866307 -56.97814615 200.86866307 -59.76133728 195.98057556 C-61.7770415 194.46109077 -63.79199563 193.21597179 -66 192 C-74.52517923 184.78398906 -76.64217226 174.3967245 -79.27734375 164.015625 C-79.60001221 162.75069214 -79.60001221 162.75069214 -79.92919922 161.46020508 C-80.34156821 159.81756485 -80.74102413 158.17161135 -81.12548828 156.5222168 C-82.48908085 150.96254751 -84.24084784 146.26285927 -88.82421875 142.50390625 C-94.09705733 139.83985154 -98.28289117 139.35593345 -104 141 C-110.90037306 144.51528439 -113.77706811 150.22165286 -116.73803711 157.06518555 C-122.44440577 170.19614291 -130.5588934 180.37142132 -144.1875 185.8125 C-156.13732822 189.53457764 -167.74202021 188.44244612 -179.1875 183.3125 C-188.98315539 177.9157252 -195.75590134 169.86176322 -199.21875 159.2734375 C-208.01169345 128.43546433 -202.29343556 97.64207926 -187 70 C-167.15114586 35.29766036 -133.5434106 13.72275063 -95.83935547 2.82226562 C-91.91859553 1.75839839 -87.97061031 0.85635733 -84 0 C-82.91501221 -0.24556641 -82.91501221 -0.24556641 -81.80810547 -0.49609375 C-56.52111296 -5.96111022 -25.20697289 -5.74856859 0 0 Z " fill="#723232" transform="translate(298,63)"/>
<path d="M0 0 C3.37548403 -0.01404164 6.75096046 -0.02252167 10.12646484 -0.0300293 C11.5537516 -0.036068 11.5537516 -0.036068 13.00987244 -0.0422287 C19.29664727 -0.05271604 25.41167809 0.1627114 31.625 1.1875 C32.90636841 1.38605591 32.90636841 1.38605591 34.21362305 1.58862305 C73.85954103 8.09460111 112.52521922 27.56603732 136.75 60.375 C155.67132426 86.81255548 165.23997283 118.22864681 160.12231445 150.78979492 C157.52825374 164.88277392 152.1839964 175.86198299 140.46484375 184.49609375 C129.95162243 190.91065826 117.96027403 192.47143336 106.0625 189.875 C95.10216876 186.88075449 85.63598539 180.43392797 79.90234375 170.50390625 C77.28303125 165.73620991 74.88076556 160.86923343 72.5625 155.94921875 C69.78999569 150.10096746 67.42325959 146.99690143 61.75 143.6875 C56.36910488 142.34227622 51.65561607 143.21904902 46.6875 145.5625 C39.297099 152.26542183 37.98449768 163.07886957 35.73242188 172.35742188 C33.59463317 180.76670971 30.95630543 188.75369155 24.5 194.875 C23.9534375 195.40867188 23.406875 195.94234375 22.84375 196.4921875 C21 198 21 198 18.41967773 198.87011719 C15.81848147 200.72639117 15.81848147 200.72639117 15.54653931 203.25308228 C15.38405337 206.37470871 15.3869811 209.46042676 15.44140625 212.5859375 C15.44373764 213.75266998 15.44606903 214.91940247 15.44847107 216.12149048 C15.45823466 218.60483046 15.48008094 221.08814728 15.51293945 223.57128906 C15.56149513 227.29787748 15.57437271 231.02312682 15.58007812 234.75 C15.63190036 245.7772088 15.87351335 256.75395182 16.89453125 267.73828125 C16.97022842 268.5557785 17.0459256 269.37327576 17.12391663 270.21554565 C19.77949518 295.39216007 33.91146833 320.81104944 53.44897461 336.79516602 C68.59680595 348.69294064 86.70876458 357.62984821 106 360 C107.06605469 360.13277344 108.13210938 360.26554687 109.23046875 360.40234375 C135.37249407 362.89606321 162.56376235 356.29644837 183.4375 340 C184.97001906 338.68011472 186.49107119 337.34679088 188 336 C189.22396484 334.98873047 189.22396484 334.98873047 190.47265625 333.95703125 C211.14412655 316.41663373 222.28372441 290.86025207 224.52954102 264.1706543 C224.87305333 259.29947775 225.05858059 254.43194269 225.19140625 249.55078125 C225.22387451 248.47022461 225.25634277 247.38966797 225.28979492 246.27636719 C225.34530944 244.18240413 225.3815899 242.08781501 225.39575195 239.99316406 C225.52615351 234.20079536 225.92839312 230.4703725 230 226 C235.22259857 221.94369602 240.65340142 222.22602456 247 223 C251.59082729 225.1746024 253.84451715 227.44902582 256 232 C256.44149549 234.91980395 256.44430452 237.80488166 256.43359375 240.75390625 C256.4388356 241.60943588 256.44407745 242.46496552 256.44947815 243.34642029 C256.45589551 245.16282065 256.45456504 246.97926258 256.44604492 248.7956543 C256.43768699 251.50195352 256.46604718 254.20602704 256.49804688 256.91210938 C256.64163457 292.70389924 242.78053703 324.66012266 219 351 C218.00033203 352.10794922 218.00033203 352.10794922 216.98046875 353.23828125 C194.80328296 376.53599854 161.37539931 391.40488783 129.3125 392.3359375 C126.5413643 392.37641518 123.7713903 392.38249324 121 392.375 C120.27588928 392.37478851 119.55177856 392.37457703 118.8057251 392.37435913 C106.82829439 392.33954581 95.54663341 391.31264801 84 388 C83.33452148 387.81808105 82.66904297 387.63616211 81.98339844 387.44873047 C60.79308298 381.54141532 42.19119323 369.61795988 26 355 C24.89205078 354.00033203 24.89205078 354.00033203 23.76171875 352.98046875 C17.79206162 347.2979294 12.69290933 340.7599318 8 334 C7.02057835 332.64638114 7.02057835 332.64638114 6.02137041 331.26541644 C0.52780732 323.14957761 -1.15394714 317.22460102 -0.96203613 307.25028992 C-0.9655343 305.91499601 -0.97255647 304.57970759 -0.98274946 303.24444801 C-1.00046855 299.61319256 -0.96888239 295.98385823 -0.92852497 292.35284722 C-0.89373628 288.42325575 -0.90568507 284.4937587 -0.91174316 280.5640564 C-0.91592297 273.76831913 -0.89098239 266.97319986 -0.84584045 260.17761803 C-0.78061757 250.35265363 -0.75996798 240.52798579 -0.74993652 230.70282838 C-0.73245964 214.75948019 -0.67930797 198.81646083 -0.60351562 182.87329102 C-0.52999986 167.39283891 -0.47341354 151.91247636 -0.43945312 136.43188477 C-0.43735134 135.47647459 -0.43524955 134.52106442 -0.43308407 133.53670242 C-0.42264321 128.74333435 -0.41253368 123.94996566 -0.40258884 119.15659654 C-0.31975526 79.43750089 -0.17893817 39.71877222 0 0 Z " fill="#581E1E" transform="translate(256,60)"/>
<path d="M0 0 C1.2065625 0.4640625 1.2065625 0.4640625 2.4375 0.9375 C5.33911951 1.80289529 7.74503624 2.26456532 10.72265625 2.56640625 C11.52582275 2.64963135 12.32898926 2.73285645 13.15649414 2.81860352 C13.76485107 2.87846436 14.37320801 2.9383252 15 3 C15.2347003 18.10851305 15.41047555 33.21694165 15.51812172 48.32687378 C15.56945697 55.34451621 15.63930413 62.36101925 15.75439453 69.37792969 C15.86558275 76.16022382 15.92297928 82.94133844 15.94877243 89.7244873 C15.9671335 92.30158011 16.00298786 94.87861436 16.05730057 97.4552002 C16.38161943 113.49053204 15.48085355 124.46997045 5 137 C4.37524277 137.81833313 3.75048553 138.63666626 3.10679626 139.47979736 C1.76459283 141.2328548 0.36124991 142.86855229 -1.125 144.5 C-1.88598999 145.35803223 -1.88598999 145.35803223 -2.66235352 146.23339844 C-4.094294 147.83571596 -5.54313949 149.42036139 -7 151 C-7.68707031 151.75796875 -8.37414062 152.5159375 -9.08203125 153.296875 C-31.17981041 176.55769517 -64.76080038 191.42504173 -96.6875 192.3359375 C-99.45863788 192.37623563 -102.22860937 192.38249325 -105 192.375 C-105.72411072 192.37478851 -106.44822144 192.37457703 -107.1942749 192.37435913 C-119.17170561 192.33954581 -130.45336659 191.31264801 -142 188 C-142.99821777 187.72712158 -142.99821777 187.72712158 -144.01660156 187.44873047 C-178.31436018 177.88739716 -207.30086563 153.64256633 -224.8125 123 C-231.42876993 111.03129089 -236.14611738 98.38959737 -239 85 C-239.26707764 83.81519043 -239.26707764 83.81519043 -239.53955078 82.60644531 C-241.35946246 73.41743639 -241.37225815 64.23827106 -241.37060547 54.90722656 C-241.3750246 52.10942695 -241.41158605 49.31315167 -241.44921875 46.515625 C-241.45508034 44.72135949 -241.45905413 42.9270866 -241.4609375 41.1328125 C-241.47530853 40.30459991 -241.48967957 39.47638733 -241.50448608 38.62307739 C-241.46237875 33.27406748 -240.54013823 30.24955208 -237 26 C-231.77740143 21.94369602 -226.34659858 22.22602456 -220 23 C-215.40160037 25.1781893 -213.18212615 27.45797618 -211 32 C-210.65922539 34.86850236 -210.46848729 37.5492444 -210.41015625 40.421875 C-210.34707061 42.1054712 -210.28391723 43.78906487 -210.22070312 45.47265625 C-210.13936441 48.09152007 -210.06358906 50.71045692 -209.99145508 53.32958984 C-209.21844533 79.53186852 -202.29306077 103.74453053 -185 124 C-184.34644531 124.79792969 -183.69289062 125.59585938 -183.01953125 126.41796875 C-165.42479447 147.08938082 -139.64686792 158.47731944 -112.86523438 160.72070312 C-83.05260368 162.51344484 -56.34968 151.92237552 -33.8125 132.75 C-11.12711866 111.49622039 -1.99376746 82.9561537 -0.8744812 52.59527588 C-0.79278556 49.1911764 -0.73295841 45.78753114 -0.68359375 42.3828125 C-0.6524221 40.54805862 -0.6524221 40.54805862 -0.62062073 38.67623901 C-0.55601296 34.82587484 -0.4966597 30.97545133 -0.4375 27.125 C-0.39423003 24.49087965 -0.35061327 21.85676497 -0.30664062 19.22265625 C-0.20042474 12.81516416 -0.0985054 6.40761503 0 0 Z " fill="#8C4C4C" transform="translate(241,260)"/>
<path d="M0 0 C0.01213028 0.98240913 0.01213028 0.98240913 0.02450562 1.98466492 C0.11178321 8.91401873 0.21130977 15.84312582 0.31738281 22.7722168 C0.35524036 25.34476518 0.39016102 27.91735878 0.421875 30.48999023 C0.57723326 42.94535318 0.74929646 55.3718952 1.90625 67.78125 C1.98128754 68.59611374 2.05632507 69.41097748 2.13363647 70.25053406 C4.76562984 95.40731346 18.93585333 120.83099942 38.44897461 136.79516602 C53.59680595 148.69294064 71.70876458 157.62984821 91 160 C92.06605469 160.13277344 93.13210938 160.26554688 94.23046875 160.40234375 C120.37249407 162.89606321 147.56376235 156.29644837 168.4375 140 C169.97001906 138.68011472 171.49107119 137.34679088 173 136 C173.81597656 135.32582031 174.63195312 134.65164063 175.47265625 133.95703125 C196.14412655 116.41663373 207.28372441 90.86025207 209.52954102 64.1706543 C209.87305333 59.29947775 210.05858059 54.43194269 210.19140625 49.55078125 C210.22387451 48.47022461 210.25634277 47.38966797 210.28979492 46.27636719 C210.34530944 44.18240413 210.3815899 42.08781501 210.39575195 39.99316406 C210.52615351 34.20079536 210.92839312 30.4703725 215 26 C220.22259857 21.94369602 225.65340142 22.22602456 232 23 C236.59082729 25.1746024 238.84451715 27.44902582 241 32 C241.44149549 34.91980395 241.44430452 37.80488166 241.43359375 40.75390625 C241.4388356 41.60943588 241.44407745 42.46496552 241.44947815 43.34642029 C241.45589551 45.16282065 241.45456504 46.97926258 241.44604492 48.7956543 C241.43768699 51.50195352 241.46604718 54.20602704 241.49804688 56.91210938 C241.64163457 92.70389924 227.78053703 124.66012266 204 151 C203.33355469 151.73863281 202.66710937 152.47726562 201.98046875 153.23828125 C179.80328296 176.53599854 146.37539931 191.40488783 114.3125 192.3359375 C111.5413643 192.37641518 108.7713903 192.38249324 106 192.375 C105.27588928 192.37478851 104.55177856 192.37457703 103.8057251 192.37435913 C91.82829439 192.33954581 80.54663341 191.31264801 69 188 C68.00178223 187.72712158 68.00178223 187.72712158 66.98339844 187.44873047 C45.79308298 181.54141532 27.19119323 169.61795988 11 155 C9.89205078 154.00033203 9.89205078 154.00033203 8.76171875 152.98046875 C3.42333238 147.89883844 -1.36186794 142.11561274 -5.54333496 136.04516602 C-7.0155075 133.90584073 -7.0155075 133.90584073 -8.98498535 131.73413086 C-17.63861029 120.45764037 -16.00915391 107.51808627 -15.78125 93.91796875 C-15.76630867 91.29097728 -15.75493061 88.66396336 -15.74694824 86.03694153 C-15.72223399 79.8602771 -15.65679593 73.68476619 -15.57615232 67.50860626 C-15.48625619 60.46869945 -15.44262869 53.42873306 -15.40258884 46.38839376 C-15.31931142 31.92500499 -15.17889846 17.46251866 -15 3 C-14.15695312 2.86722656 -13.31390625 2.73445313 -12.4453125 2.59765625 C-11.34960938 2.42105469 -10.25390625 2.24445313 -9.125 2.0625 C-7.48917969 1.80146484 -7.48917969 1.80146484 -5.8203125 1.53515625 C-3.89748207 1.17029784 -1.87256464 0 0 0 Z " fill="#723232" transform="translate(271,260)"/>
</svg>
